<svg
    version="1.0"
    xmlns="http://www.w3.org/2000/svg"
    width="1024" height="1024" viewBox="0 0 1024 1024"
    preserveAspectRatio="xMidYMid meet"
>
    <g
        transform="translate(-400,1550) scale(0.14, -0.14)"
        fill="#826CC6"
        stroke="none"
    >
        <path d="M5685 10930c-69-10-212-53-270-82-27-8-105-75-105-89 0-4-41-94-91-201-92-195-201-444-214-485l-6-23 239 0 239 0 42 117c59 161 146 353 172 381 12 12 34 23 53 23 175 8 584-50 886-126 261-66 483-150 725-274 371-190 600-354 860-615 260-261 441-503 521-698 21-49 40-91 44-93 17-11 402-97 407-91C8068 10865 6379 10920 5684 10931z"/>
        <path d="M4785 10536 c-224 -79 -386 -154 -530 -244 -314 -196 -475 -361 -785 -807 -138 -198 -300 -490 -300 -541 0 -17 29 -37 140 -98 77 -43 144 -75 149 -72 5 4 46 77 92 164 147 281 236 410 393 570 170 175 329 286 610 427 l199 100 53 125 c78 181 161 381 169 408 10 33 -18 29 -190 -32z"/>
        <path d="M5819 10403 c-6 -16 -33 -93 -60 -173 -47 -138 -58 -190 -41 -190 4 0 86 -13 182 -29 312 -52 595 -146 882 -293 256 -130 417 -246 683 -488 116 -106 338 -333 358 -367 4 -6 -9 -44 -28 -84 -19 -41 -35 -79 -35 -85 0 -15 180 -81 853 -310 231 -79 770 -244 796 -244 9 0 84 65 166 144 l150 143 -35 8 c-32 6 -828 205 -1196 298 l-160 41 -55 105 c-182 353 -497 700 -889 981 -345 247 -690 402 -1102 494 -112 25 -409 76 -443 76 -8 0 -20 -12 -26 -27z"/>
        <path d="M4894 9576 c-223 -53 -480 -164 -659 -284 -330 -221 -598 -617 -739 -1089 -40 -133 -126 -518 -126 -563 0 -27 4 -29 53 -39 290 -61 533 -394 514 -706 -7 -109 -37 -192 -113 -308 -113 -172 -144 -254 -144 -377 1 -241 138 -410 338 -413 107 -2 230 82 279 190 14 30 35 60 46 67 12 8 84 30 160 50 252 66 565 178 802 288 485 224 841 436 1147 681 227 181 468 422 451 451 -4 7 -42 55 -83 106 l-75 92 -245 -6 c-135 -4 -257 -9 -272 -12 -22 -5 -31 -17 -53 -73 -45 -120 -94 -190 -215 -311 -225 -225 -619 -450 -1130 -645 -346 -132 -536 -185 -554 -156 -11 16 -66 464 -66 529 1 279 172 527 466 675 250 126 769 236 1309 277 182 14 661 14 748 0 135 -21 237 -78 341 -191 118 -127 184 -311 158 -441 -35 -177 -188 -360 -493 -590 -670 -504 -1782 -971 -2710 -1138 -62 -11 -129 -20 -150 -20 l-38 0 6 -52 c12 -101 13 -102 79 -112 88 -12 640 10 824 34 754 98 1593 419 2175 833 240 171 497 416 628 598 213 298 302 638 242 924 -33 157 -128 363 -242 522 -64 91 -246 295 -347 391 -199 188 -595 454 -848 571 -153 71 -382 159 -493 190 -252 71 -266 73 -580 77 -279 4 -294 3 -391 -20z"/>
        <path d="M8060 8212 c0 -3 16 -53 35 -112 19 -59 44 -158 57 -220 20 -97 26 -114 46 -121 22 -8 512 -91 618 -105 64 -8 84 2 194 102 47 42 104 92 128 112 23 19 41 36 39 38 -1 2 -129 35 -282 73 -154 39 -405 108 -557 154 -153 47 -278 82 -278 79z"/>
        <path d="M9800 7868 c-169 -159 -387 -318 -782 -572 -98 -63 -109 -73 -125 -115 -9 -25 -48 -120 -85 -210 -38 -90 -66 -166 -63 -169 6 -6 353 201 525 313 131 85 281 206 515 414 77 68 142 126 144 127 3 3 -27 296 -31 300 -2 1 -46 -39 -98 -88z"/>
        <path d="M5685 7663 c-357 -29 -525 -67 -725 -167 -129 -64 -196 -111 -281 -196 -103 -104 -186 -270 -135 -270 25 0 154 50 329 127 288 126 579 214 770 231 114 11 113 10 248 171 57 68 76 97 67 103 -12 7 -187 8 -273 1z"/>
        <path d="M9940 7293 c-131 -157 -210 -298 -210 -374 0 -84 113 -419 141 -419 10 0 7 -10 55 210 68 318 114 660 88 660 -5 0 -39 -35 -74 -77z"/>
        <path d="M8092 7278 c-7 -7 -12 -18 -12 -25 0 -16 -66 -181 -121 -304 -147 -326 -400 -612 -752 -847 -313 -211 -739 -435 -1082 -572 -259 -103 -538 -184 -881 -254 -326 -67 -543 -90 -939 -101 -115 -3 -245 -8 -289 -11 l-79 -6 6 -57 c6 -50 118 -596 162 -788 l17 -73 122 0 c243 0 750 38 1086 81 483 62 985 175 1254 284 525 212 1046 541 1201 759 57 82 185 342 185 378 0 16 -23 4 -219 -119 -493 -309 -844 -482 -1331 -657 -376 -136 -870 -262 -1235 -315 -199 -30 -202 -29 -214 17 -20 74 -35 212 -24 223 6 6 131 34 279 64 753 151 1334 352 1825 630 136 78 385 247 504 342 408 328 750 771 930 1207 20 48 35 89 33 91 -3 3 -389 65 -405 65 -5 0 -14 -5 -21 -12z"/>
        <path d="M9495 6733 c-27 -19 -94 -62 -147 -95 l-98 -61 0 -121 c0 -214 33 -364 118 -531 75 -149 241 -386 322 -459 36 -32 44 -36 52 -23 13 25 38 205 38 283 0 68 -3 76 -71 208 -128 247 -150 336 -158 622 l-6 211 -50 -34z"/>
        <path d="M8980 6428 c-19 -12 -89 -50 -155 -84 l-120 -62 3 -149 c7 -339 64 -533 230 -783 76 -115 156 -209 167 -198 11 10 75 259 75 290 0 15 -21 82 -46 150 -89 239 -108 357 -103 658 3 129 0 200 -6 200 -5 0 -26 -10 -45 -22z"/>
        <path d="M8516 6200 c-37 -17 -92 -37 -121 -45 -61 -18 -70 -27 -80 -75 -4 -19 -47 -174 -95 -345 -81 -286 -110 -395 -110 -410 0 -11 40 15 178 119 l138 103 38 99 c66 172 158 547 141 574 -9 14 -11 13 -89 -20z"/>
    </g>
</svg>
